<svg width="1440" height="815" viewBox="0 0 1440 815" fill="none" xmlns="http://www.w3.org/2000/svg">
<path d="M971.039 306.786L1929.41 -334.177L1941.65 -317.74L971.471 307.329L971.039 306.786Z" fill="#00183A"/>
<path d="M475.653 307.329L-494.524 -317.74L-482.356 -334.177L476.013 306.786L475.653 307.329Z" fill="#00183A"/>
<path d="M971.471 498.321L1941.65 1123.32L1929.41 1139.83L971.039 498.864L971.471 498.321Z" fill="#00183A"/>
<path d="M717.226 623.973L727.522 1732.16H706.209L716.506 623.973H717.226Z" fill="#00183A"/>
<path d="M923.588 635.316L1484.86 1608.88L1465.99 1618.32L922.94 635.655L923.588 635.316Z" fill="#00183A"/>
<path d="M526.2 635.655L-16.9238 1618.32L-35.7168 1608.88L525.552 635.316L526.2 635.655Z" fill="#00183A"/>
<path d="M716.506 221.75L706.209 -886.435H727.522L717.226 221.75H716.506Z" fill="#00183A"/>
<path d="M922.94 210.068L1465.99 -772.601L1484.86 -763.16L923.588 210.407L922.94 210.068Z" fill="#00183A"/>
<path d="M525.552 210.407L-35.7168 -763.16L-16.9238 -772.601L526.2 210.068L525.552 210.407Z" fill="#00183A"/>
<path d="M1220.6 519.987L2355.31 807.154L2349.62 826.511L1220.39 520.666L1220.6 519.987Z" fill="#00183A"/>
<path d="M1220.39 253.808L2349.62 -52.0363L2355.31 -32.6791L1220.6 254.419L1220.39 253.808Z" fill="#00183A"/>
<path d="M1061.69 399.225L2232.18 303.797L2233.84 323.834L1061.69 399.904V399.225Z" fill="#00183A"/>
<path d="M133.78 520.666L-995.454 826.511L-1001.14 807.154L133.564 519.987L133.78 520.666Z" fill="#00183A"/>
<path d="M133.564 254.419L-1001.14 -32.6791L-995.454 -52.0363L133.78 253.808L133.564 254.419Z" fill="#00183A"/>
<path d="M292.404 399.904L-879.672 323.834L-878.016 303.797L292.476 399.225L292.404 399.904Z" fill="#00183A"/>
<path d="M476.013 498.864L-482.356 1139.83L-494.524 1123.32L475.653 498.321L476.013 498.864Z" fill="#00183A"/>
<path d="M1035.27 299.179L2217.42 -418.398L2231.03 -398.021L1035.7 299.858L1035.27 299.179Z" fill="#00183A"/>
<path d="M443.036 274.727L-681.014 -521.636L-665.461 -540.722L443.54 274.048L443.036 274.727Z" fill="#00183A"/>
<path d="M1024.83 528.205L2148.87 1324.5L2133.39 1343.59L1024.32 528.817L1024.83 528.205Z" fill="#00183A"/>
<path d="M713.77 665.472L662.863 1990.66L637.374 1989.58L712.906 665.472H713.77Z" fill="#00183A"/>
<path d="M959.806 689.516L1575.15 1881.72L1552.18 1892.04L959.014 689.855L959.806 689.516Z" fill="#00183A"/>
<path d="M484.726 669.751L-220.478 1816.85L-242.367 1804.56L484.006 669.344L484.726 669.751Z" fill="#00183A"/>
<path d="M735.803 184.597L786.709 -1140.52L812.199 -1139.44L736.667 184.665L735.803 184.597Z" fill="#00183A"/>
<path d="M983.28 181.201L1688.48 -965.902L1710.44 -953.676L984 181.609L983.28 181.201Z" fill="#00183A"/>
<path d="M508.271 161.369L-107.144 -1030.83L-84.1032 -1041.16L508.991 161.029L508.271 161.369Z" fill="#00183A"/>
<path d="M1321.41 566.716L2661.4 967.513L2653.48 990.402L1321.12 567.531L1321.41 566.716Z" fill="#00183A"/>
<path d="M1336.31 248.51L2703.52 -59.7792L2709.28 -36.3467L1336.53 249.325L1336.31 248.51Z" fill="#00183A"/>
<path d="M1138.3 414.304L2542.88 359.628L2543.67 383.672L1138.38 415.119L1138.3 414.304Z" fill="#00183A"/>
<path d="M22.2462 512.38L-1344.96 820.669L-1350.72 797.237L22.0302 511.565L22.2462 512.38Z" fill="#00183A"/>
<path d="M37.2231 194.174L-1302.84 -206.623L-1294.92 -229.512L37.4391 193.359L37.2231 194.174Z" fill="#00183A"/>
<path d="M218.744 376.064L-1177.91 225.757L-1174.82 201.849L218.888 375.249L218.744 376.064Z" fill="#00183A"/>
<path d="M432.595 503.686L-749.561 1221.26L-763.17 1200.95L432.163 503.007L432.595 503.686Z" fill="#00183A"/>
</svg>
